<svg width="1326" height="262" viewBox="0 0 1326 262" fill="none" xmlns="http://www.w3.org/2000/svg">
<path d="M365.508 60.9869C367.479 60.9869 368.466 58.4918 367.072 57.0325L334.18 22.5878C333.316 21.6832 331.915 21.6832 331.051 22.5878L298.159 57.0325C296.765 58.4918 297.752 60.9869 299.723 60.9869L365.508 60.9869Z" fill="#FFB400"/>
<path d="M398.49 40.037C400.461 40.037 401.448 42.5322 400.054 43.9914L367.162 78.4361C366.298 79.3408 364.897 79.3408 364.033 78.4361L331.141 43.9914C329.747 42.5322 330.734 40.037 332.705 40.037L398.49 40.037Z" fill="#F9C600"/>
<path d="M331.985 40.037C333.956 40.037 334.943 42.5322 333.549 43.9914L300.657 78.4361C299.793 79.3408 298.392 79.3408 297.528 78.4361L264.636 43.9914C263.242 42.5322 264.229 40.037 266.2 40.037L331.985 40.037Z" fill="#F9C600"/>
<path d="M331.033 40.638C331.93 39.6842 333.445 39.6842 334.341 40.638L367.107 75.4993C368.469 76.9483 367.441 79.3239 365.453 79.3239H299.922C297.934 79.3239 296.906 76.9483 298.268 75.4993L331.033 40.638Z" fill="#FFB400"/>
<path d="M523.529 60.9869C525.499 60.9869 526.486 58.4918 525.093 57.0325L492.2 22.5878C491.336 21.6832 489.936 21.6832 489.072 22.5878L456.18 57.0325C454.786 58.4918 455.773 60.9869 457.744 60.9869L523.529 60.9869Z" fill="#2949A3"/>
<path d="M556.511 40.037C558.481 40.037 559.468 42.5322 558.075 43.9914L525.182 78.4361C524.319 79.3408 522.918 79.3408 522.054 78.4361L489.162 43.9914C487.768 42.5322 488.755 40.037 490.726 40.037L556.511 40.037Z" fill="#1E52E3"/>
<path d="M490.005 40.037C491.976 40.037 492.963 42.5322 491.57 43.9914L458.677 78.4361C457.813 79.3408 456.413 79.3408 455.549 78.4361L422.656 43.9914C421.263 42.5322 422.25 40.037 424.22 40.037L490.005 40.037Z" fill="#1E52E3"/>
<path d="M489.054 40.638C489.95 39.6842 491.466 39.6842 492.362 40.638L525.127 75.4993C526.489 76.9483 525.462 79.3239 523.473 79.3239H457.943C455.954 79.3239 454.927 76.9483 456.289 75.4993L489.054 40.638Z" fill="#2949A3"/>
<path d="M681.549 60.9869C683.52 60.9869 684.507 58.4918 683.113 57.0325L650.221 22.5878C649.357 21.6832 647.956 21.6832 647.093 22.5878L614.2 57.0325C612.807 58.4918 613.794 60.9869 615.764 60.9869L681.549 60.9869Z" fill="#C10506"/>
<path d="M714.531 40.037C716.502 40.037 717.489 42.5322 716.095 43.9914L683.203 78.4361C682.339 79.3408 680.938 79.3408 680.075 78.4361L647.182 43.9914C645.789 42.5322 646.776 40.037 648.746 40.037L714.531 40.037Z" fill="#CC2728"/>
<path d="M648.026 40.037C649.997 40.037 650.984 42.5322 649.59 43.9914L616.698 78.4361C615.834 79.3408 614.433 79.3408 613.569 78.4361L580.677 43.9914C579.283 42.5322 580.27 40.037 582.241 40.037L648.026 40.037Z" fill="#CC2728"/>
<path d="M647.074 40.638C647.971 39.6842 649.486 39.6842 650.383 40.638L683.148 75.4993C684.51 76.9483 683.482 79.3239 681.494 79.3239H615.963C613.975 79.3239 612.947 76.9483 614.309 75.4993L647.074 40.638Z" fill="#C10506"/>
<path d="M839.57 60.9869C841.541 60.9869 842.528 58.4918 841.134 57.0325L808.241 22.5878C807.378 21.6832 805.977 21.6832 805.113 22.5878L772.221 57.0325C770.827 58.4918 771.814 60.9869 773.785 60.9869L839.57 60.9869Z" fill="#FFB400"/>
<path d="M872.552 40.037C874.523 40.037 875.51 42.5322 874.116 43.9914L841.224 78.4361C840.36 79.3408 838.959 79.3408 838.095 78.4361L805.203 43.9914C803.809 42.5322 804.796 40.037 806.767 40.037L872.552 40.037Z" fill="#F9C600"/>
<path d="M806.047 40.037C808.017 40.037 809.004 42.5322 807.611 43.9914L774.718 78.4361C773.854 79.3408 772.454 79.3408 771.59 78.4361L738.697 43.9914C737.304 42.5322 738.291 40.037 740.262 40.037L806.047 40.037Z" fill="#F9C600"/>
<path d="M805.095 40.638C805.992 39.6842 807.507 39.6842 808.403 40.638L841.168 75.4993C842.53 76.9483 841.503 79.3239 839.514 79.3239H773.984C771.995 79.3239 770.968 76.9483 772.33 75.4993L805.095 40.638Z" fill="#FFB400"/>
<path d="M997.59 60.9869C999.561 60.9869 1000.55 58.4918 999.155 57.0325L966.262 22.5878C965.398 21.6832 963.998 21.6832 963.134 22.5878L930.241 57.0325C928.848 58.4918 929.835 60.9869 931.805 60.9869L997.59 60.9869Z" fill="#2949A3"/>
<path d="M1030.57 40.037C1032.54 40.037 1033.53 42.5322 1032.14 43.9914L999.244 78.4361C998.38 79.3408 996.98 79.3408 996.116 78.4361L963.223 43.9914C961.83 42.5322 962.817 40.037 964.787 40.037L1030.57 40.037Z" fill="#1E52E3"/>
<path d="M964.067 40.037C966.038 40.037 967.025 42.5322 965.631 43.9914L932.739 78.4361C931.875 79.3408 930.474 79.3408 929.611 78.4361L896.718 43.9914C895.325 42.5322 896.311 40.037 898.282 40.037L964.067 40.037Z" fill="#1E52E3"/>
<path d="M963.116 40.638C964.012 39.6842 965.527 39.6842 966.424 40.638L999.189 75.4993C1000.55 76.9483 999.524 79.3239 997.535 79.3239H932.005C930.016 79.3239 928.989 76.9483 930.351 75.4993L963.116 40.638Z" fill="#2949A3"/>
<path d="M339.171 221.516C341.142 221.516 342.129 219.021 340.735 217.561L307.843 183.117C306.979 182.212 305.579 182.212 304.715 183.117L271.822 217.561C270.429 219.021 271.416 221.516 273.386 221.516L339.171 221.516Z" fill="#FFB400"/>
<path d="M372.153 200.566C374.124 200.566 375.111 203.061 373.718 204.52L340.825 238.965C339.961 239.87 338.561 239.87 337.697 238.965L304.804 204.52C303.411 203.061 304.398 200.566 306.368 200.566L372.153 200.566Z" fill="#F9C600"/>
<path d="M305.648 200.566C307.619 200.566 308.606 203.061 307.212 204.52L274.32 238.965C273.456 239.87 272.055 239.87 271.191 238.965L238.299 204.52C236.905 203.061 237.892 200.566 239.863 200.566L305.648 200.566Z" fill="#F9C600"/>
<path d="M304.697 201.167C305.593 200.213 307.108 200.213 308.005 201.167L340.77 236.028C342.132 237.477 341.104 239.853 339.116 239.853H273.585C271.597 239.853 270.569 237.477 271.931 236.028L304.697 201.167Z" fill="#FFB400"/>
<path d="M497.192 221.516C499.163 221.516 500.15 219.021 498.756 217.561L465.864 183.117C465 182.212 463.599 182.212 462.735 183.117L429.843 217.561C428.449 219.021 429.436 221.516 431.407 221.516L497.192 221.516Z" fill="#2949A3"/>
<path d="M530.174 200.566C532.145 200.566 533.132 203.061 531.738 204.52L498.846 238.965C497.982 239.87 496.581 239.87 495.717 238.965L462.825 204.52C461.431 203.061 462.418 200.566 464.389 200.566L530.174 200.566Z" fill="#1E52E3"/>
<path d="M463.669 200.566C465.639 200.566 466.626 203.061 465.233 204.52L432.34 238.965C431.476 239.87 430.076 239.87 429.212 238.965L396.32 204.52C394.926 203.061 395.913 200.566 397.884 200.566L463.669 200.566Z" fill="#1E52E3"/>
<path d="M462.717 201.167C463.614 200.213 465.129 200.213 466.025 201.167L498.79 236.028C500.152 237.477 499.125 239.853 497.136 239.853H431.606C429.617 239.853 428.59 237.477 429.952 236.028L462.717 201.167Z" fill="#2949A3"/>
<path d="M655.212 221.516C657.183 221.516 658.17 219.021 656.777 217.561L623.884 183.117C623.02 182.212 621.62 182.212 620.756 183.117L587.863 217.561C586.47 219.021 587.457 221.516 589.427 221.516L655.212 221.516Z" fill="#C10506"/>
<path d="M688.195 200.566C690.165 200.566 691.152 203.061 689.759 204.52L656.866 238.965C656.002 239.87 654.602 239.87 653.738 238.965L620.845 204.52C619.452 203.061 620.439 200.566 622.41 200.566L688.195 200.566Z" fill="#CC2728"/>
<path d="M621.689 200.566C623.66 200.566 624.647 203.061 623.253 204.52L590.361 238.965C589.497 239.87 588.096 239.87 587.233 238.965L554.34 204.52C552.947 203.061 553.934 200.566 555.904 200.566L621.689 200.566Z" fill="#CC2728"/>
<path d="M620.738 201.167C621.634 200.213 623.149 200.213 624.046 201.167L656.811 236.028C658.173 237.477 657.146 239.853 655.157 239.853H589.627C587.638 239.853 586.611 237.477 587.973 236.028L620.738 201.167Z" fill="#C10506"/>
<path d="M813.233 221.516C815.204 221.516 816.191 219.021 814.797 217.561L781.905 183.117C781.041 182.212 779.64 182.212 778.776 183.117L745.884 217.561C744.49 219.021 745.477 221.516 747.448 221.516L813.233 221.516Z" fill="#FFB400"/>
<path d="M846.215 200.566C848.186 200.566 849.173 203.061 847.779 204.52L814.887 238.965C814.023 239.87 812.622 239.87 811.758 238.965L778.866 204.52C777.472 203.061 778.459 200.566 780.43 200.566L846.215 200.566Z" fill="#F9C600"/>
<path d="M779.71 200.566C781.681 200.566 782.667 203.061 781.274 204.52L748.381 238.965C747.518 239.87 746.117 239.87 745.253 238.965L712.361 204.52C710.967 203.061 711.954 200.566 713.925 200.566L779.71 200.566Z" fill="#F9C600"/>
<path d="M778.758 201.167C779.655 200.213 781.17 200.213 782.066 201.167L814.832 236.028C816.194 237.477 815.166 239.853 813.178 239.853H747.647C745.659 239.853 744.631 237.477 745.993 236.028L778.758 201.167Z" fill="#FFB400"/>
<path d="M971.254 221.516C973.224 221.516 974.211 219.021 972.818 217.561L939.925 183.117C939.062 182.212 937.661 182.212 936.797 183.117L903.905 217.561C902.511 219.021 903.498 221.516 905.469 221.516L971.254 221.516Z" fill="#2949A3"/>
<path d="M1004.24 200.566C1006.21 200.566 1007.19 203.061 1005.8 204.52L972.907 238.965C972.044 239.87 970.643 239.87 969.779 238.965L936.887 204.52C935.493 203.061 936.48 200.566 938.451 200.566L1004.24 200.566Z" fill="#1E52E3"/>
<path d="M937.73 200.566C939.701 200.566 940.688 203.061 939.295 204.52L906.402 238.965C905.538 239.87 904.138 239.87 903.274 238.965L870.381 204.52C868.988 203.061 869.975 200.566 871.945 200.566L937.73 200.566Z" fill="#1E52E3"/>
<path d="M936.779 201.167C937.675 200.213 939.191 200.213 940.087 201.167L972.852 236.028C974.214 237.477 973.187 239.853 971.198 239.853H905.668C903.679 239.853 902.652 237.477 904.014 236.028L936.779 201.167Z" fill="#2949A3"/>
<path d="M1129.27 221.516C1131.24 221.516 1132.23 219.021 1130.84 217.561L1097.95 183.117C1097.08 182.212 1095.68 182.212 1094.82 183.117L1061.93 217.561C1060.53 219.021 1061.52 221.516 1063.49 221.516L1129.27 221.516Z" fill="#C10506"/>
<path d="M1162.26 200.566C1164.23 200.566 1165.21 203.061 1163.82 204.52L1130.93 238.965C1130.06 239.87 1128.66 239.87 1127.8 238.965L1094.91 204.52C1093.51 203.061 1094.5 200.566 1096.47 200.566L1162.26 200.566Z" fill="#CC2728"/>
<path d="M1095.75 200.566C1097.72 200.566 1098.71 203.061 1097.32 204.52L1064.42 238.965C1063.56 239.87 1062.16 239.87 1061.29 238.965L1028.4 204.52C1027.01 203.061 1028 200.566 1029.97 200.566L1095.75 200.566Z" fill="#CC2728"/>
<path d="M1094.8 201.167C1095.7 200.213 1097.21 200.213 1098.11 201.167L1130.87 236.028C1132.23 237.477 1131.21 239.853 1129.22 239.853H1063.69C1061.7 239.853 1060.67 237.477 1062.03 236.028L1094.8 201.167Z" fill="#C10506"/>
<path d="M1287.29 221.516C1289.27 221.516 1290.25 219.021 1288.86 217.561L1255.97 183.117C1255.1 182.212 1253.7 182.212 1252.84 183.117L1219.95 217.561C1218.55 219.021 1219.54 221.516 1221.51 221.516L1287.29 221.516Z" fill="#FFB400"/>
<path d="M1320.28 200.566C1322.25 200.566 1323.23 203.061 1321.84 204.52L1288.95 238.965C1288.08 239.87 1286.68 239.87 1285.82 238.965L1252.93 204.52C1251.53 203.061 1252.52 200.566 1254.49 200.566L1320.28 200.566Z" fill="#F9C600"/>
<path d="M1253.77 200.566C1255.74 200.566 1256.73 203.061 1255.34 204.52L1222.44 238.965C1221.58 239.87 1220.18 239.87 1219.31 238.965L1186.42 204.52C1185.03 203.061 1186.02 200.566 1187.99 200.566L1253.77 200.566Z" fill="#F9C600"/>
<path d="M1252.82 201.167C1253.72 200.213 1255.23 200.213 1256.13 201.167L1288.89 236.028C1290.26 237.477 1289.23 239.853 1287.24 239.853H1221.71C1219.72 239.853 1218.69 237.477 1220.05 236.028L1252.82 201.167Z" fill="#FFB400"/>
<path d="M104.649 141.251C106.619 141.251 107.606 138.756 106.213 137.297L73.3202 102.852C72.4564 101.948 71.0558 101.948 70.1919 102.852L37.2994 137.297C35.9059 138.756 36.8929 141.251 38.8636 141.251L104.649 141.251Z" fill="#FFB400"/>
<path d="M137.631 120.302C139.601 120.302 140.588 122.797 139.195 124.256L106.302 158.701C105.438 159.605 104.038 159.605 103.174 158.701L70.2815 124.256C68.888 122.797 69.8749 120.302 71.8456 120.302L137.631 120.302Z" fill="#F9C600"/>
<path d="M71.1254 120.302C73.0961 120.302 74.083 122.797 72.6895 124.256L39.797 158.701C38.9331 159.605 37.5326 159.605 36.6687 158.701L3.77619 124.256C2.38268 122.797 3.36962 120.302 5.34034 120.302L71.1254 120.302Z" fill="#F9C600"/>
<path d="M70.1738 120.902C71.0703 119.949 72.5855 119.949 73.482 120.902L106.247 155.764C107.609 157.213 106.582 159.588 104.593 159.588H39.0627C37.0741 159.588 36.0467 157.213 37.4087 155.764L70.1738 120.902Z" fill="#FFB400"/>
<path d="M262.669 141.251C264.64 141.251 265.627 138.756 264.233 137.297L231.341 102.852C230.477 101.948 229.076 101.948 228.213 102.852L195.32 137.297C193.927 138.756 194.913 141.251 196.884 141.251L262.669 141.251Z" fill="#2949A3"/>
<path d="M295.651 120.302C297.622 120.302 298.609 122.797 297.215 124.256L264.323 158.701C263.459 159.605 262.058 159.605 261.195 158.701L228.302 124.256C226.909 122.797 227.896 120.302 229.866 120.302L295.651 120.302Z" fill="#1E52E3"/>
<path d="M229.146 120.302C231.117 120.302 232.104 122.797 230.71 124.256L197.818 158.701C196.954 159.605 195.553 159.605 194.689 158.701L161.797 124.256C160.403 122.797 161.39 120.302 163.361 120.302L229.146 120.302Z" fill="#1E52E3"/>
<path d="M228.194 120.902C229.091 119.949 230.606 119.949 231.503 120.902L264.268 155.764C265.63 157.213 264.602 159.588 262.614 159.588H197.083C195.095 159.588 194.067 157.213 195.429 155.764L228.194 120.902Z" fill="#2949A3"/>
<path d="M420.69 141.251C422.66 141.251 423.647 138.756 422.254 137.297L389.361 102.852C388.498 101.948 387.097 101.948 386.233 102.852L353.341 137.297C351.947 138.756 352.934 141.251 354.905 141.251L420.69 141.251Z" fill="#C10506"/>
<path d="M453.672 120.302C455.643 120.302 456.629 122.797 455.236 124.256L422.343 158.701C421.48 159.605 420.079 159.605 419.215 158.701L386.323 124.256C384.929 122.797 385.916 120.302 387.887 120.302L453.672 120.302Z" fill="#CC2728"/>
<path d="M387.167 120.302C389.137 120.302 390.124 122.797 388.731 124.256L355.838 158.701C354.974 159.605 353.574 159.605 352.71 158.701L319.817 124.256C318.424 122.797 319.411 120.302 321.382 120.302L387.167 120.302Z" fill="#CC2728"/>
<path d="M386.215 120.902C387.111 119.949 388.627 119.949 389.523 120.902L422.288 155.764C423.65 157.213 422.623 159.588 420.634 159.588H355.104C353.115 159.588 352.088 157.213 353.45 155.764L386.215 120.902Z" fill="#C10506"/>
<path d="M578.71 141.251C580.681 141.251 581.668 138.756 580.274 137.297L547.382 102.852C546.518 101.948 545.118 101.948 544.254 102.852L511.361 137.297C509.968 138.756 510.955 141.251 512.925 141.251L578.71 141.251Z" fill="#FFB400"/>
<path d="M611.692 120.302C613.663 120.302 614.65 122.797 613.257 124.256L580.364 158.701C579.5 159.605 578.1 159.605 577.236 158.701L544.343 124.256C542.95 122.797 543.937 120.302 545.907 120.302L611.692 120.302Z" fill="#F9C600"/>
<path d="M545.187 120.302C547.158 120.302 548.145 122.797 546.751 124.256L513.859 158.701C512.995 159.605 511.594 159.605 510.73 158.701L477.838 124.256C476.444 122.797 477.431 120.302 479.402 120.302L545.187 120.302Z" fill="#F9C600"/>
<path d="M544.236 120.902C545.132 119.949 546.647 119.949 547.544 120.902L580.309 155.764C581.671 157.213 580.643 159.588 578.655 159.588H513.124C511.136 159.588 510.108 157.213 511.47 155.764L544.236 120.902Z" fill="#FFB400"/>
<path d="M736.731 141.251C738.702 141.251 739.689 138.756 738.295 137.297L705.403 102.852C704.539 101.948 703.138 101.948 702.274 102.852L669.382 137.297C667.988 138.756 668.975 141.251 670.946 141.251L736.731 141.251Z" fill="#2949A3"/>
<path d="M769.713 120.302C771.684 120.302 772.671 122.797 771.277 124.256L738.385 158.701C737.521 159.605 736.12 159.605 735.256 158.701L702.364 124.256C700.97 122.797 701.957 120.302 703.928 120.302L769.713 120.302Z" fill="#1E52E3"/>
<path d="M703.208 120.302C705.178 120.302 706.165 122.797 704.772 124.256L671.879 158.701C671.015 159.605 669.615 159.605 668.751 158.701L635.859 124.256C634.465 122.797 635.452 120.302 637.423 120.302L703.208 120.302Z" fill="#1E52E3"/>
<path d="M702.256 120.902C703.153 119.949 704.668 119.949 705.564 120.902L738.329 155.764C739.691 157.213 738.664 159.588 736.675 159.588H671.145C669.156 159.588 668.129 157.213 669.491 155.764L702.256 120.902Z" fill="#2949A3"/>
<path d="M894.752 141.251C896.722 141.251 897.709 138.756 896.316 137.297L863.423 102.852C862.559 101.948 861.159 101.948 860.295 102.852L827.402 137.297C826.009 138.756 826.996 141.251 828.967 141.251L894.752 141.251Z" fill="#C10506"/>
<path d="M927.734 120.302C929.704 120.302 930.691 122.797 929.298 124.256L896.405 158.701C895.541 159.605 894.141 159.605 893.277 158.701L860.384 124.256C858.991 122.797 859.978 120.302 861.949 120.302L927.734 120.302Z" fill="#CC2728"/>
<path d="M861.228 120.302C863.199 120.302 864.186 122.797 862.792 124.256L829.9 158.701C829.036 159.605 827.635 159.605 826.772 158.701L793.879 124.256C792.486 122.797 793.473 120.302 795.443 120.302L861.228 120.302Z" fill="#CC2728"/>
<path d="M860.277 120.902C861.173 119.949 862.688 119.949 863.585 120.902L896.35 155.764C897.712 157.213 896.685 159.588 894.696 159.588H829.166C827.177 159.588 826.15 157.213 827.512 155.764L860.277 120.902Z" fill="#C10506"/>
<path d="M1052.77 141.251C1054.74 141.251 1055.73 138.756 1054.34 137.297L1021.44 102.852C1020.58 101.948 1019.18 101.948 1018.32 102.852L985.423 137.297C984.029 138.756 985.016 141.251 986.987 141.251L1052.77 141.251Z" fill="#FFB400"/>
<path d="M1085.75 120.302C1087.72 120.302 1088.71 122.797 1087.32 124.256L1054.43 158.701C1053.56 159.605 1052.16 159.605 1051.3 158.701L1018.4 124.256C1017.01 122.797 1018 120.302 1019.97 120.302L1085.75 120.302Z" fill="#F9C600"/>
<path d="M1019.25 120.302C1021.22 120.302 1022.21 122.797 1020.81 124.256L987.92 158.701C987.057 159.605 985.656 159.605 984.792 158.701L951.9 124.256C950.506 122.797 951.493 120.302 953.464 120.302L1019.25 120.302Z" fill="#F9C600"/>
<path d="M1018.3 120.902C1019.19 119.949 1020.71 119.949 1021.61 120.902L1054.37 155.764C1055.73 157.213 1054.71 159.588 1052.72 159.588H987.186C985.198 159.588 984.17 157.213 985.532 155.764L1018.3 120.902Z" fill="#FFB400"/>
<path d="M1210.79 141.251C1212.76 141.251 1213.75 138.756 1212.36 137.297L1179.46 102.852C1178.6 101.948 1177.2 101.948 1176.34 102.852L1143.44 137.297C1142.05 138.756 1143.04 141.251 1145.01 141.251L1210.79 141.251Z" fill="#C10506"/>
<path d="M1243.77 120.302C1245.75 120.302 1246.73 122.797 1245.34 124.256L1212.45 158.701C1211.58 159.605 1210.18 159.605 1209.32 158.701L1176.43 124.256C1175.03 122.797 1176.02 120.302 1177.99 120.302L1243.77 120.302Z" fill="#CC2728"/>
<path d="M1177.27 120.302C1179.24 120.302 1180.23 122.797 1178.83 124.256L1145.94 158.701C1145.08 159.605 1143.68 159.605 1142.81 158.701L1109.92 124.256C1108.53 122.797 1109.51 120.302 1111.48 120.302L1177.27 120.302Z" fill="#CC2728"/>
<path d="M1176.32 120.902C1177.21 119.949 1178.73 119.949 1179.63 120.902L1212.39 155.764C1213.75 157.213 1212.73 159.588 1210.74 159.588H1145.21C1143.22 159.588 1142.19 157.213 1143.55 155.764L1176.32 120.902Z" fill="#C10506"/>
</svg>
