<svg width="115" height="81" viewBox="0 0 115 81" fill="none" xmlns="http://www.w3.org/2000/svg">
<g id="paper-boat--blue">
<path id="sail" d="M84.17 48.6288C85.7414 48.6288 86.5284 46.6392 85.4172 45.4757L59.1899 18.0107C58.5011 17.2894 57.3843 17.2894 56.6955 18.0107L30.4682 45.4757C29.3571 46.6392 30.144 48.6288 31.7154 48.6288L84.17 48.6288Z" fill="#2949A3"/>
<path id="right" d="M110.469 31.9241C112.04 31.9241 112.827 33.9136 111.716 35.0772L85.4887 62.5422C84.7999 63.2635 83.6831 63.2635 82.9943 62.5422L56.767 35.0772C55.6559 33.9136 56.4428 31.9241 58.0142 31.9241L110.469 31.9241Z" fill="#1E52E3"/>
<path id="left" d="M57.4399 31.9241C59.0112 31.9241 59.7982 33.9136 58.6871 35.0772L32.4598 62.5422C31.7709 63.2635 30.6542 63.2635 29.9654 62.5422L3.73805 35.0772C2.62692 33.9136 3.41387 31.9241 4.98525 31.9241L57.4399 31.9241Z" fill="#1E52E3"/>
<path id="Polygon 1" d="M56.6811 32.4033C57.3959 31.6427 58.6041 31.6427 59.3189 32.4033L85.4446 60.2004C86.5306 61.3558 85.7114 63.25 84.1258 63.25H31.8742C30.2886 63.25 29.4694 61.3558 30.5553 60.2004L56.6811 32.4033Z" fill="#2949A3"/>
</g>
</svg>
