<svg width="114" height="81" viewBox="0 0 114 81" fill="none" xmlns="http://www.w3.org/2000/svg">
<g id="paper-boat--yellow">
<path id="sail" d="M83.443 48.6288C85.0144 48.6288 85.8013 46.6392 84.6902 45.4757L58.4629 18.0107C57.7741 17.2894 56.6573 17.2894 55.9685 18.0107L29.7412 45.4757C28.6301 46.6392 29.417 48.6288 30.9884 48.6288L83.443 48.6288Z" fill="#FFB400"/>
<path id="right" d="M109.742 31.9241C111.313 31.9241 112.1 33.9136 110.989 35.0772L84.7616 62.5422C84.0728 63.2635 82.956 63.2635 82.2672 62.5422L56.0399 35.0772C54.9288 33.9136 55.7157 31.9241 57.2871 31.9241L109.742 31.9241Z" fill="#F9C600"/>
<path id="left" d="M56.7128 31.9241C58.2842 31.9241 59.0711 33.9136 57.96 35.0772L31.7327 62.5422C31.0439 63.2635 29.9271 63.2635 29.2383 62.5422L3.01098 35.0772C1.89984 33.9136 2.68679 31.9241 4.25817 31.9241L56.7128 31.9241Z" fill="#F9C600"/>
<path id="Polygon 1" d="M55.954 32.4033C56.6689 31.6427 57.877 31.6427 58.5918 32.4033L84.7176 60.2004C85.8035 61.3558 84.9843 63.25 83.3987 63.25H31.1472C29.5616 63.25 28.7424 61.3558 29.8283 60.2004L55.954 32.4033Z" fill="#FFB400"/>
</g>
</svg>
