<svg width="123" height="123" viewBox="0 0 123 123" fill="none" xmlns="http://www.w3.org/2000/svg">
<path d="M88.4369 70.7911C90.0107 70.7911 90.799 68.7917 89.6861 67.6224L63.4652 40.0728C62.7753 39.348 61.6568 39.348 60.9669 40.0728L34.7461 67.6224C33.6332 68.7917 34.4214 70.791 35.9953 70.791L88.4369 70.7911Z" fill="#C10506"/>
<path d="M114.736 54.0307C116.31 54.0307 117.098 56.03 115.985 57.1993L89.7644 84.7489C89.0745 85.4738 87.956 85.4738 87.2661 84.7489L61.0453 57.1993C59.9324 56.03 60.7206 54.0307 62.2945 54.0307L114.736 54.0307Z" fill="#CC2728"/>
<path d="M61.7065 54.0307C63.2804 54.0307 64.0686 56.03 62.9557 57.1993L36.7349 84.7489C36.045 85.4738 34.9264 85.4738 34.2365 84.7489L8.01573 57.1993C6.90282 56.03 7.69103 54.0307 9.26491 54.0307L61.7065 54.0307Z" fill="#CC2728"/>
<path d="M88.4369 85.2865C90.0107 85.2865 90.799 83.2871 89.6861 82.1178L63.4652 54.5683C62.7753 53.8434 61.6568 53.8434 60.9669 54.5683L34.7461 82.1178C33.6332 83.2871 34.4214 85.2865 35.9953 85.2865L88.4369 85.2865Z" fill="#C10506"/>
</svg>
